# xmcd
#
# Track frame offsets: 
#        150
#        14447
#        27054
#        41881
#        59689
#        77661
#        87684
#        104194
#        120516
#        145187
#        162664
#        176272
#        193903
#
# Disc length: 2785 seconds
#
# Revision: 0
# Processed by: cddbd v1.5.2PL0 Copyright (c) Steve Scherf et al.
# Submitted via: ExactAudioCopyFreeDBPlugin 1.0
#
DISCID=bb0adf0d
DTITLE=The Knickerbocker All-Stars - Go Back Home To The Blues
DYEAR=2016
DGENRE=Blues
TTITLE0=36-22-36
TTITLE1=Yon Know That You love Me
TTITLE2=Cadillac Baby
TTITLE3=Brand New Fool
TTITLE4=Something To Remember You By
TTITLE5=Take It Like A Man
TTITLE6=Hokin'
TTITLE7=Don't You Ever Get Tired Of Being Right
TTITLE8=He Was A Friend Of Mine
TTITLE9=Go Back Home To The Blues
TTITLE10=Blockbuster Boogie
TTITLE11=Annie Get Your Thing On
TTITLE12=I Tried
EXTD=
EXTT0=
EXTT1=
EXTT2=
EXTT3=
EXTT4=
EXTT5=
EXTT6=
EXTT7=
EXTT8=
EXTT9=
EXTT10=
EXTT11=
EXTT12=
PLAYORDER=
